<svg xmlns="http://www.w3.org/2000/svg" viewBox="0 0 100 100" fill="none" shape-rendering="auto" aria-hidden="true" width="512" height="512"><!-- Generated by DiceBear (https://www.dicebear.com) --><metadata xmlns:rdf="http://www.w3.org/1999/02/22-rdf-syntax-ns#" xmlns:xsi="http://www.w3.org/2001/XMLSchema-instance" xmlns:dc="http://purl.org/dc/elements/1.1/" xmlns:dcterms="http://purl.org/dc/terms/"><rdf:RDF><rdf:Description><dc:title>Planets</dc:title><dc:creator>DiceBear</dc:creator><dc:source xsi:type="dcterms:URI">https://www.dicebear.com</dc:source><dcterms:license xsi:type="dcterms:URI">https://creativecommons.org/publicdomain/zero/1.0/</dcterms:license><dc:rights>“Planets” (https://www.dicebear.com) by “DiceBear”, licensed under “CC0 1.0” (https://creativecommons.org/publicdomain/zero/1.0/)</dc:rights></rdf:Description></rdf:RDF></metadata><defs><g id="star-large-b3bc2082"><g class="dbpa-tw-large"><circle cx="5" cy="5" r="1.4" fill="#fff" fill-opacity=".9"/></g></g><g id="star-small-b3bc2082"><circle cx="5" cy="5" r=".8" fill="#fff" fill-opacity=".85"/></g><g id="star-faint-b3bc2082"><circle cx="5" cy="5" r=".7" fill="#fff" fill-opacity=".5"/></g><g id="star-medium-b3bc2082"><g class="dbpa-tw-medium"><circle cx="5" cy="5" r="1.1" fill="#fff" fill-opacity=".85"/></g></g><g id="star-sparkle-b3bc2082"><g class="dbpa-tw-sparkle"><path d="M5 1.8Q5.5 4.5 8.2 5 5.5 5.5 5 8.2 4.5 5.5 1.8 5 4.5 4.5 5 1.8" fill="#fff" fill-opacity=".9"/></g></g><g id="planet-disc-b3bc2082"><circle cx="30" cy="30" r="30" fill="#c083d2"/></g><clipPath id="dicebearPlanets-cracked"><circle cx="34" cy="33" r="30"/></clipPath><g id="surface-cracked-b3bc2082"><g class="dbpa-surface"><g clip-path="url(#dicebearPlanets-cracked)"><path d="m2 31 16-4 14 8 16-6 18 6" stroke="#fff" stroke-opacity=".3" stroke-width=".8"/><path d="m28 3 4 16-8 14 6 16-4 14" stroke="#fff" stroke-opacity=".3" stroke-width=".8"/><path d="m44 45 10 6 10-4" stroke="#fff" stroke-opacity=".25" stroke-width=".8"/><circle cx="32" cy="35" r="1.4" fill="#fff" fill-opacity=".2"/><circle cx="30" cy="49" r="1.1" fill="#fff" fill-opacity=".16"/></g></g></g><radialGradient id="dicebearPlanets-shade" gradientUnits="userSpaceOnUse" cx="22" cy="22" r="44"><stop offset="0" stop-color="#fff" stop-opacity=".14"/><stop offset=".38" stop-color="#fff" stop-opacity="0"/><stop offset=".55" stop-color="#000" stop-opacity="0"/><stop offset="1" stop-color="#000" stop-opacity=".26"/></radialGradient><g id="shade-soft-b3bc2082"><circle cx="30" cy="30" r="30" fill="url(#dicebearPlanets-shade)"/><path d="M55.2 13.7a30 30 0 0 1-41.5 41.5 33.5 33.5 0 0 0 41.5-41.5" fill="#000" fill-opacity=".13"/></g><g id="moons-one-b3bc2082"><g class="dbpa-moons"><circle cx="58" cy="4" r="4" fill="#e5d6b6"/></g></g><g id="animation-none-b3bc2082"></g><clipPath id="clip-b3bc2082"><rect width="100" height="100" rx="0" ry="0"/></clipPath></defs><g clip-path="url(#clip-b3bc2082)"><rect width="100" height="100" fill="#1d1a2a"/><use transform="translate(7.5 7.5) translate(-1.72721, 4.42249)" href="#star-large-b3bc2082"/><use transform="translate(32.5 7.5) translate(7.52297, -8.65717)" href="#star-small-b3bc2082"/><use transform="translate(57.5 7.5) translate(10.80343, -7.52796)" href="#star-faint-b3bc2082"/><use transform="translate(82.5 7.5) translate(-10.31347, -0.80207)" href="#star-small-b3bc2082"/><use transform="translate(7.5 32.5) translate(-11.18066, -2.81371)" href="#star-small-b3bc2082"/><use transform="translate(82.5 32.5) translate(1.28852, -0.10666)" href="#star-medium-b3bc2082"/><use transform="translate(7.5 57.5) translate(-10.31026, -2.58531)" href="#star-small-b3bc2082"/><use transform="translate(82.5 57.5) translate(-2.58223, 7.5656)" href="#star-small-b3bc2082"/><use transform="translate(7.5 82.5) translate(-10.04038, 3.50995)" href="#star-sparkle-b3bc2082"/><use transform="translate(32.5 82.5) translate(11.29736, 3.59933)" href="#star-faint-b3bc2082"/><use transform="translate(57.5 82.5) translate(-8.47733, -0.90737)" href="#star-medium-b3bc2082"/><use transform="translate(82.5 82.5) translate(-8.05999, 7.2566)" href="#star-faint-b3bc2082"/><use transform="translate(20 20)" href="#planet-disc-b3bc2082"/><use transform="translate(16 17) rotate(-65.6632, 34, 33)" href="#surface-cracked-b3bc2082"/><use transform="translate(20 20)" href="#shade-soft-b3bc2082"/><use transform="translate(21 21) translate(0.50929, -4.03845)" href="#moons-one-b3bc2082"/><use href="#animation-none-b3bc2082"/></g></svg>